<?xml version="1.0" standalone="no"?>
<!DOCTYPE svg PUBLIC "-//W3C//DTD SVG 20010904//EN"
 "http://www.w3.org/TR/2001/REC-SVG-20010904/DTD/svg10.dtd">
<svg version="1.0" xmlns="http://www.w3.org/2000/svg"
 width="512.000000pt" height="512.000000pt" viewBox="0 0 512.000000 512.000000"
 preserveAspectRatio="xMidYMid meet">

<g transform="translate(0.000000,512.000000) scale(0.100000,-0.100000)"
fill="#DEDEDE" stroke="none">
<path d="M1740 4583 c-297 -34 -541 -239 -642 -538 l-23 -70 -3 -1359 -2
-1359 -163 160 c-166 164 -193 183 -267 183 -76 0 -159 -55 -191 -124 -23 -50
-24 -124 -4 -174 20 -46 669 -701 734 -739 61 -37 141 -37 202 0 65 38 714
693 734 739 20 50 19 124 -4 174 -32 69 -115 124 -191 124 -74 0 -101 -19
-267 -183 l-163 -161 0 1286 c0 828 4 1304 10 1339 21 110 90 203 185 249 49
25 54 25 390 30 340 5 340 5 385 30 34 19 52 38 73 79 44 88 33 182 -30 252
-58 64 -90 69 -432 67 -163 0 -312 -3 -331 -5z"/>
<path d="M3794 4581 c-18 -5 -47 -17 -65 -29 -61 -38 -707 -694 -724 -734 -20
-50 -19 -124 4 -174 32 -69 115 -124 191 -124 74 0 101 19 267 183 l163 161 0
-1286 c0 -828 -4 -1304 -10 -1339 -21 -110 -90 -203 -185 -249 -49 -25 -54
-25 -390 -30 -377 -6 -390 -8 -439 -74 -92 -124 -40 -301 101 -342 81 -23 686
-15 783 11 271 72 474 281 540 555 19 83 20 113 20 1419 l0 1335 163 -161
c166 -164 193 -183 267 -183 76 0 159 55 191 124 23 50 24 124 4 174 -19 45
-669 701 -730 737 -46 27 -106 37 -151 26z"/>
</g>
</svg>
